<?xml version="1.0" encoding="utf-8"?>
<!-- Generator: Adobe Illustrator 19.0.0, SVG Export Plug-In . SVG Version: 6.00 Build 0)  -->
<svg version="1.1" id="Layer_1" xmlns="http://www.w3.org/2000/svg" xmlns:xlink="http://www.w3.org/1999/xlink" x="0px" y="0px"
	 viewBox="0 0 500 500" style="enable-background:new 0 0 500 500;" xml:space="preserve">
<style type="text/css">
	.st0{fill:#3781C2;}
</style>
<g id="g2552" transform="matrix(2.5650071,0,0,2.5650071,-1722.9173,15.11566)">
	<path id="path161" class="st0" d="M699,69.7L699,69.7l0-5.5h5.4v39.6l0,0.1v5.3H699v-5.4l0-0.1V69.7"/>
	<path id="path163" class="st0" d="M753.8,92.9c0.1,8.2,5.2,14.7,11.3,14.6c6.1-0.1,11-6.8,10.8-15c-0.1-8.2-5.2-14.7-11.3-14.6
		C758.5,78,753.7,84.7,753.8,92.9z M798.4,83c0.1,0.3-0.2-0.5-0.2-0.5L798.4,83z M802.1,116.9c0.2-0.4,0.6-1.1,1-1.9L802.1,116.9z
		 M802.4,80.2c0.1,0.2,0.1,0.4,0.2,0.6l1.8,4.5L802.4,80.2z M779.8,102.7c3.3,3,6.3,4.6,10.2,4.6c3.9,0,7.4-1.9,7.4-5.6
		c0-3.1-2.7-4.9-7.6-7c-4.1-1.8-7.2-3.1-8.8-5.7c0.2,1.1,0.3,2.3,0.3,3.5c0,10.1-7.3,18.2-16.2,18.2s-16.2-8.2-16.2-18.2
		c0-6.1,2.6-11.4,6.7-14.8h-11v26.1l0,0.1v5.4h-4.9v-5.2c0-0.1,0-0.2,0-0.3V77.8h-4.3v-3.3h4.4c0.6-6.6,4.6-10.4,10.3-10.4
		c3.7,0,5.7,0.4,6.8,0.9v4.5c0,0.3,0,0.5,0,0.5c-0.1,0-0.2,0-0.2,0c-1.8-1.6-3.5-2.9-7.6-2.8c-3.2,0-5.4,2.6-4.6,7.3h18.2
		c0.8-0.1,1.5-0.2,2.3-0.2c6.5,0,12.1,4.3,14.7,10.5c0-0.3,0-0.7,0-1.1c0-6.5,6.2-9.2,12.7-9.2c0.2,0,0.5,0,0.7,0
		c2.3,0,5.5,0.7,7.5,1.2l3.8,9.5l5.5,13.5l0.6,2.2l0.7-2.2l6.9-17.3c1.3-4.8,6.3-6.8,11.9-6.8c2.8,0,4.8,0.3,7.3,1.2V81
		c-3-2.2-5.2-3.5-8.6-3.5c-3,0-6.7,1.3-6.7,5.8c-0.1,3.4,1.9,4,7.8,6.9c4.8,2.1,9.3,4.4,9.3,9.9c0,9-8.8,10.6-13.1,10.6
		c-3.8,0-7.4-1-9.3-2.6v-6l0.3,0.3c3.5,3.3,6.6,5,10.6,5c3.9,0,7.4-1.9,7.4-5.6c0-3.1-2.7-4.9-7.6-7c-4.7-2-7.7-3.4-9-6.7
		c-1.9,4.7-10.8,26.4-12.8,31H801l2.2-4.1c1.2-2.4,2.9-6.1,4.5-9.7L798.4,83c-0.1-0.1-0.2-0.5-0.5-1.2c-0.7-1.6-1.4-3.1-3.3-3.9
		c-1.1-0.4-2.2-0.5-3.5-0.5c-3,0-6.9,1.3-6.9,5.8c-0.1,3.4,2.2,4,8.1,6.9c4.8,2.1,9.3,4.4,9.3,9.9c0,9-8.8,10.6-13.1,10.6
		c-3.4,0-6.6-0.8-8.6-2.1V102.7"/>
	<path id="path165" class="st0" d="M714.4,74.8l0.1,3.9l0,0.3l0.1,0c0.1-0.2,0.1-0.3,0.2-0.4c2-2.1,4.5-4.3,10.4-4.3
		c5.7,0,9.4,4.9,9.5,7.9l0,21.6v0.1v5.4h-4.9v-6.4l0-18.4c0-3.8-3.3-6.6-7.4-6.6c-3.4,0-7.7,3.1-7.9,6.2v19.8l0,0.1v5.3h-4.9v-30
		l0-4.5H714.4"/>
</g>
</svg>
